<?xml version="1.0" standalone="no"?>
<!DOCTYPE svg PUBLIC "-//W3C//DTD SVG 20010904//EN"
 "http://www.w3.org/TR/2001/REC-SVG-20010904/DTD/svg10.dtd">
<svg version="1.0" xmlns="http://www.w3.org/2000/svg"
 width="975.000000pt" height="975.000000pt" viewBox="0 0 975.000000 975.000000"
 preserveAspectRatio="xMidYMid meet">
<metadata>
Created by potrace 1.14, written by Peter Selinger 2001-2017
</metadata>
<g transform="translate(0.000000,975.000000) scale(0.100000,-0.100000)"
fill="#000000" stroke="none">
<path d="M4808 9395 c-2 -1 -25 -5 -53 -8 -233 -27 -453 -164 -595 -374 -27
-40 -50 -75 -50 -77 0 -2 -82 -145 -182 -317 -99 -173 -193 -335 -207 -360
-14 -26 -134 -233 -265 -461 l-240 -414 -90 -49 c-171 -95 -408 -254 -542
-367 -122 -102 -173 -150 -304 -283 -200 -204 -358 -410 -513 -666 -66 -110
-181 -332 -214 -414 -7 -17 -22 -52 -33 -80 -43 -99 -121 -343 -155 -480 -75
-305 -107 -568 -107 -880 l0 -170 -146 -255 c-81 -140 -151 -262 -157 -272 -5
-9 -26 -45 -46 -80 -59 -103 -74 -128 -129 -223 -29 -49 -66 -115 -83 -145
-16 -30 -36 -62 -43 -71 -8 -8 -14 -18 -14 -21 0 -5 -267 -474 -290 -508 -30
-47 -75 -158 -96 -240 -21 -78 -26 -300 -10 -375 47 -213 121 -352 262 -492
145 -144 318 -229 529 -259 28 -4 491 -8 1030 -8 l980 -1 73 -43 c200 -115
540 -256 767 -317 132 -36 194 -51 295 -70 107 -20 130 -24 180 -30 25 -3 54
-8 65 -10 19 -4 92 -10 230 -20 141 -11 458 -5 572 10 21 3 63 7 93 10 30 3
66 7 80 10 13 2 42 7 65 10 358 52 872 233 1180 415 l59 35 971 1 c533 0 999
4 1035 8 342 37 641 278 759 613 38 107 51 198 47 333 -5 193 -42 298 -188
543 -32 55 -58 101 -58 103 0 2 -25 44 -55 95 -30 50 -55 93 -55 94 0 1 -30
54 -66 116 -37 63 -78 134 -92 159 -13 25 -28 50 -32 55 -5 6 -19 30 -32 55
-23 41 -80 140 -176 305 -49 85 -57 99 -170 295 l-100 175 -1 200 c-1 110 -3
214 -5 230 -2 17 -7 64 -10 105 -4 41 -9 86 -11 100 -5 38 -17 113 -21 135 -2
10 -6 37 -9 60 -4 22 -10 56 -15 75 -5 19 -11 46 -14 60 -21 102 -89 341 -106
372 -6 10 -10 23 -10 29 0 45 -172 425 -270 595 -239 417 -543 768 -923 1064
-56 44 -106 84 -112 88 -20 16 -221 147 -255 167 -20 11 -73 40 -117 65 -55
30 -87 55 -97 75 -9 17 -24 44 -33 60 -10 17 -30 50 -44 75 -15 25 -36 61 -47
80 -10 19 -61 107 -112 195 -51 88 -101 174 -110 190 -23 41 -163 282 -189
325 -11 19 -33 58 -48 85 -15 28 -32 58 -38 67 -23 38 -212 366 -244 423 -173
309 -425 469 -758 480 -45 1 -83 2 -85 0z"/>
</g>
</svg>
